<?xml version="1.0" encoding="UTF-8"?>
<svg width="24px" height="24px" viewBox="0 0 24 24" version="1.1" xmlns="http://www.w3.org/2000/svg" xmlns:xlink="http://www.w3.org/1999/xlink">
    <title>Icon / social / facebook</title>
    <g id="Icon-/-social-/-facebook" stroke="none" stroke-width="1" fill="none" fill-rule="evenodd">
        <path d="M20,3 L4,3 C3.44771525,3 3,3.44647504 3,3.99722992 L3,19.9529086 C3,20.5036635 3.44771525,20.9501385 4,20.9501385 L12.63,20.9501385 L12.63,14.0193906 L10.26,14.0193906 L10.26,11.2869806 L12.6,11.2869806 L12.6,9.29252078 C12.5030038,8.33168283 12.8367268,7.37720828 13.5117614,6.68481026 C14.1867961,5.99241225 15.1341435,5.63286438 16.1,5.70249307 C16.8050276,5.70287522 17.5094749,5.7428276 18.21,5.82216066 L18.21,8.25540166 L16.77,8.25540166 C15.64,8.25540166 15.43,8.78393352 15.43,9.57174515 L15.43,11.3069252 L18.13,11.3069252 L17.78,14.0193906 L15.43,14.0193906 L15.43,21 L20,21 C20.5522847,21 21,20.553525 21,20.0027701 L21,20.0027701 L21,3.99722992 C21,3.44647504 20.5522847,3 20,3 Z" id="Path" fill="#fff"></path>
    </g>
</svg>